<svg width="128" height="128" viewBox="0 0 128 128" fill="none" xmlns="http://www.w3.org/2000/svg">
    <style>
        path{
          fill:black;
        }
        @media (prefers-color-scheme: dark) {
          path{ fill: #ffffff }
        }
    </style>
<path fill-rule="evenodd" clip-rule="evenodd" d="M54.9538 60.4048C54.9538 57.2525 57.5656 54.7049 60.7787 54.7049C63.9918 54.7049 66.6036 57.2525 66.6036 60.4048C66.6036 63.5571 63.9918 66.1047 60.7787 66.1047C57.5656 66.1047 54.9538 63.5571 54.9538 60.4048ZM71.6205 40.9776C71.6205 38.8883 73.368 37.1838 75.51 37.1838C77.6521 37.1838 79.3996 38.8883 79.3996 40.9776C79.3996 43.0669 77.6521 44.7714 75.51 44.7714C73.368 44.7714 71.6205 43.0669 71.6205 40.9776ZM91.0681 56.5194C91.0681 55.0165 92.3083 53.8069 93.8491 53.8069C95.3898 53.8069 96.63 55.0165 96.63 56.5194C96.63 58.0222 95.3898 59.2318 93.8491 59.2318C92.3083 59.2318 91.0681 58.0222 91.0681 56.5194ZM110.441 73.8939C110.441 92.5697 94.9201 107.708 75.7919 107.708C56.6637 107.708 41.1432 92.5697 41.1432 73.8939C41.1432 73.1425 41.1619 72.391 41.2183 71.6579C41.2935 71.8595 45.8407 83.3692 67.5055 73.3257C89.3019 63.2273 110.14 70.21 110.234 70.2467C110.365 71.438 110.441 72.6476 110.441 73.8939ZM116.322 102.888C98.058 124.973 64.8937 128.418 42.2518 110.604C23.7436 96.0519 17.9939 71.8045 26.4306 51.3877L24.251 49.6649H24.2322L14.3298 41.894H14.3486L13.0145 40.831C12.5636 40.4644 12.4884 39.8046 12.8454 39.3648L16.6786 34.7279C17.0544 34.2881 17.712 34.2147 18.1818 34.5813L19.5159 35.626L29.4182 43.4152L36.502 48.9867C37.7985 50.0131 38.1931 51.6992 37.4791 53.1654C29.3994 69.8068 33.7023 90.2787 49.0537 102.357C67.0358 116.505 93.3605 113.756 107.866 96.2352C122.353 78.714 119.535 53.0371 101.553 38.8883C86.2015 26.8104 64.7622 27.0487 49.8053 38.2835C48.49 39.2731 46.705 39.2548 45.4085 38.2285L38.4562 32.7669L28.5539 24.996H28.5727L27.107 23.823C26.6561 23.4565 26.5809 22.7967 26.9379 22.3568L30.7711 17.7199C31.1469 17.2801 31.8233 17.2068 32.2743 17.555L33.7399 18.7096L43.6422 26.4988L45.6903 28.1117C64.3676 15.7222 89.8844 16.0888 108.374 30.6409C131.034 48.4552 134.586 80.8034 116.341 102.888H116.322ZM8.37342 39.1265C4.50268 43.8184 -2.76904 38.1002 1.1017 33.4083L22.2968 7.74976C26.1675 3.05791 33.4393 8.77611 29.5685 13.468L8.37342 39.1082V39.1265Z"/>
</svg>
