<svg xmlns="http://www.w3.org/2000/svg" width="166" height="34" fill="none" viewBox="0 0 166 34">
  <g clip-path="url(#a)">
    <path fill="#000" d="M165.911 23.524c-.382.912-1.823 3.845-6.263 3.845-2.061 0-3.617-.57-4.88-1.737-1.413-1.282-2.002-2.88-2.002-4.815 0-2.449 1.03-3.961 1.942-4.844 1.501-1.426 3.265-1.738 4.796-1.738 2.587 0 4.088.998 4.97 2.02 1.353 1.566 1.531 3.505 1.531 4.845v.283h-9.528c0 .74.208 1.541.619 2.079.382.513 1.175 1.166 2.557 1.166s2.383-.629 2.973-1.622l3.295.513-.01.005Zm-3.29-4.359c-.292-1.68-1.705-2.477-3.027-2.477-1.323 0-2.706.826-2.998 2.477h6.03-.005Zm-12.62-12.962v20.773h-3.587V6.203h3.587Zm-14.998 18.92-6.06-10.485h4.177l3.939 7.01 3.528-7.01h4.058L134.384 33.5h-4.058l4.677-8.377Zm-9.498-7.523v9.376h-3.588V17.6h-1.412v-2.962h1.412v-4.215h3.588v4.215h2.472V17.6h-2.472Zm-9.117-5.3c-1.15-1.483-2.502-1.623-3.206-1.623-2.061 0-2.705 1.254-2.705 2.223 0 .456.148.883.619 1.282.471.427 1.12.658 2.354 1.085 1.531.514 2.973 1.027 3.968 1.91.882.769 1.675 2.05 1.675 3.99 0 3.706-2.765 6.24-6.823 6.24-3.617 0-5.732-2.135-6.763-3.59l2.497-2.31c.942 1.854 2.735 2.536 4.118 2.536 1.734 0 3.027-1.028 3.027-2.622 0-.681-.233-1.224-.763-1.709-.733-.657-1.912-1.027-3.027-1.397-1.031-.34-2.265-.797-3.265-1.651-.649-.543-1.561-1.594-1.561-3.533 0-2.794 1.942-5.584 6.292-5.584 1.234 0 3.558.23 5.56 2.223l-2.002 2.535.005-.005Zm-37.323 2.098h3.588v1.397C84.005 14.144 85.68 14 86.448 14c2.675 0 3.706 1.622 4.028 2.251.62-.97 1.883-2.251 4.088-2.251 1.972 0 2.943.883 3.438 1.512.823 1.056.882 2.107.882 3.476v7.753h-3.587v-6.726c0-1.455-.322-2.108-.59-2.42-.47-.571-1.12-.629-1.471-.629-.971 0-1.59.428-1.972 1.08-.47.74-.5 1.738-.5 2.396v6.299h-3.588v-6.726c0-1.455-.322-2.108-.59-2.42-.47-.571-1.12-.629-1.471-.629-.971 0-1.59.428-1.972 1.08-.47.74-.5 1.738-.5 2.396v6.299h-3.588V14.403l.01-.005Zm-4.91 1.339c1.263 1.11 2.145 2.823 2.145 4.844 0 2.021-.882 3.707-2.145 4.815-1.09.97-2.735 1.738-5.148 1.738s-4.058-.768-5.148-1.738a6.394 6.394 0 0 1-2.145-4.815c0-1.992.882-3.735 2.145-4.844 1.09-.97 2.735-1.737 5.148-1.737s4.058.768 5.148 1.737ZM72.6 20.581c0-1.94-1.53-3.504-3.587-3.504-2.056 0-3.587 1.565-3.587 3.504 0 1.94 1.501 3.476 3.587 3.476 2.086 0 3.587-1.594 3.587-3.476ZM46.304 15.08h8.294V7.73h3.826v19.006h-3.825v-8.464h-8.295v8.464H42.48V7.73h3.825v7.35Z"/>
    <path fill="#000" fill-rule="evenodd" d="M14.493 14.748c0-.825.689-1.493 1.536-1.493.847 0 1.536.668 1.536 1.493 0 .826-.689 1.493-1.536 1.493-.847 0-1.536-.667-1.536-1.493Zm4.395-5.088c0-.548.46-.994 1.025-.994s1.026.446 1.026.994c0 .547-.46.993-1.026.993-.564 0-1.025-.446-1.025-.993Zm5.128 4.07a.72.72 0 0 1 .733-.71.72.72 0 0 1 .734.71.72.72 0 0 1-.734.711.72.72 0 0 1-.733-.71Zm5.108 4.552c0 4.892-4.092 8.857-9.136 8.857s-9.137-3.965-9.137-8.857c0-.197.005-.394.02-.586.02.053 1.219 3.068 6.932.437 5.747-2.645 11.242-.816 11.267-.807.035.312.054.63.054.956Zm1.551 7.594c-4.816 5.785-13.561 6.688-19.532 2.021-4.88-3.811-6.396-10.163-4.171-15.51l-.575-.452h-.005L3.78 9.9h.005l-.352-.279a.273.273 0 0 1-.045-.384L4.4 8.023a.288.288 0 0 1 .396-.039l.352.274 2.611 2.04 1.868 1.46c.342.268.446.71.258 1.094-2.13 4.36-.996 9.721 3.052 12.885 4.742 3.706 11.683 2.986 15.508-1.603 3.82-4.59 3.077-11.316-1.664-15.022-4.048-3.163-9.702-3.1-13.646-.158a.948.948 0 0 1-1.16-.015l-1.832-1.43L7.53 5.473h.005l-.386-.307a.273.273 0 0 1-.045-.384l1.011-1.215a.294.294 0 0 1 .396-.043l.387.303 2.611 2.04.54.423c4.925-3.246 11.654-3.15 16.53.662 5.975 4.666 6.911 13.14 2.1 18.924h-.005ZM2.21 9.175C1.19 10.404-.728 8.905.292 7.677L5.882.956c1.02-1.23 2.938.269 1.917 1.498L2.21 9.17v.005Z" clip-rule="evenodd"/>
  </g>
  <defs>
    <clipPath id="a">
      <path fill="#fff" d="M0 .5h166v33H0z"/>
    </clipPath>
  </defs>
</svg>
